# xmcd
# 
# Track frame offsets:
#     150
#     42695
#     77636
#     109683
#     213806
#     261108
#     287287
# 
# Disc length: 4388
# 
# Revision: 0
# Processed by: cddbd v1.5.2PL0 Copyright (c) Steve Scherf et al.
# Submitted via: fre:ac v1.0.17
# 
DISCID=59112207
DTITLE=Nirvana - Raw Power CD2 (The Media inteview)
DYEAR=2015
DGENRE=Grunge
TTITLE0=Sunglasses At Dawn
TTITLE1=After Utero
TTITLE2=Frances Bean
TTITLE3=Perfume
TTITLE4=Best New Band
TTITLE5=The Future
TTITLE6=Hanging out
EXTD=
EXTT0=
EXTT1=
EXTT2=
EXTT3=
EXTT4=
EXTT5=
EXTT6=
PLAYORDER=
